<mxfile host="Electron" modified="2023-09-12T15:29:32.052Z" agent="Mozilla/5.0 (Windows NT 10.0; Win64; x64) AppleWebKit/537.36 (KHTML, like Gecko) draw.io/21.6.8 Chrome/114.0.5735.289 Electron/25.5.0 Safari/537.36" etag="dhOtWrUIq4XR6fGNdfbA" version="21.6.8" type="device">
  <diagram name="Page-1" id="edf60f1a-56cd-e834-aa8a-f176f3a09ee4">
    <mxGraphModel dx="1098" dy="868" grid="1" gridSize="8" guides="1" tooltips="1" connect="1" arrows="1" fold="1" page="1" pageScale="1" pageWidth="1100" pageHeight="850" background="none" math="0" shadow="0">
      <root>
        <mxCell id="0" />
        <mxCell id="1" parent="0" />
        <mxCell id="5X2ydo5uoh-6mL-FlauR-5" value="&lt;p style=&quot;line-height: 0%;&quot;&gt;working&lt;/p&gt;&lt;p style=&quot;line-height: 0%;&quot;&gt;directory&lt;/p&gt;" style="html=1;verticalLabelPosition=middle;align=center;labelBackgroundColor=none;verticalAlign=middle;strokeWidth=2;strokeColor=#0080F0;shadow=0;dashed=0;shape=mxgraph.ios7.icons.folder;fontFamily=Times New Roman;horizontal=1;labelPosition=center;whiteSpace=wrap;" vertex="1" parent="1">
          <mxGeometry x="32" y="32" width="64" height="32" as="geometry" />
        </mxCell>
        <mxCell id="5X2ydo5uoh-6mL-FlauR-10" value="main.py" style="whiteSpace=wrap;html=1;shape=mxgraph.basic.document" vertex="1" parent="1">
          <mxGeometry x="96" y="448" width="64" height="32" as="geometry" />
        </mxCell>
        <mxCell id="5X2ydo5uoh-6mL-FlauR-75" style="edgeStyle=orthogonalEdgeStyle;rounded=0;orthogonalLoop=1;jettySize=auto;html=1;entryX=0.507;entryY=0.061;entryDx=0;entryDy=0;entryPerimeter=0;" edge="1" parent="1" source="5X2ydo5uoh-6mL-FlauR-38" target="5X2ydo5uoh-6mL-FlauR-42">
          <mxGeometry relative="1" as="geometry" />
        </mxCell>
        <mxCell id="5X2ydo5uoh-6mL-FlauR-76" style="edgeStyle=orthogonalEdgeStyle;rounded=0;orthogonalLoop=1;jettySize=auto;html=1;" edge="1" parent="1" source="5X2ydo5uoh-6mL-FlauR-38">
          <mxGeometry relative="1" as="geometry">
            <mxPoint x="320" y="144" as="targetPoint" />
          </mxGeometry>
        </mxCell>
        <mxCell id="5X2ydo5uoh-6mL-FlauR-78" style="edgeStyle=orthogonalEdgeStyle;rounded=0;orthogonalLoop=1;jettySize=auto;html=1;entryX=0.5;entryY=0;entryDx=0;entryDy=0;entryPerimeter=0;" edge="1" parent="1" source="5X2ydo5uoh-6mL-FlauR-38" target="5X2ydo5uoh-6mL-FlauR-55">
          <mxGeometry relative="1" as="geometry" />
        </mxCell>
        <mxCell id="5X2ydo5uoh-6mL-FlauR-79" style="edgeStyle=orthogonalEdgeStyle;rounded=0;orthogonalLoop=1;jettySize=auto;html=1;entryX=0.5;entryY=0;entryDx=0;entryDy=0;entryPerimeter=0;" edge="1" parent="1" source="5X2ydo5uoh-6mL-FlauR-38" target="5X2ydo5uoh-6mL-FlauR-56">
          <mxGeometry relative="1" as="geometry" />
        </mxCell>
        <mxCell id="5X2ydo5uoh-6mL-FlauR-81" style="edgeStyle=orthogonalEdgeStyle;rounded=0;orthogonalLoop=1;jettySize=auto;html=1;entryX=0.5;entryY=0;entryDx=0;entryDy=0;entryPerimeter=0;" edge="1" parent="1" source="5X2ydo5uoh-6mL-FlauR-38" target="5X2ydo5uoh-6mL-FlauR-57">
          <mxGeometry relative="1" as="geometry" />
        </mxCell>
        <mxCell id="5X2ydo5uoh-6mL-FlauR-38" value="&lt;p style=&quot;line-height: 0%;&quot;&gt;database&lt;/p&gt;" style="html=1;verticalLabelPosition=middle;align=center;labelBackgroundColor=none;verticalAlign=middle;strokeWidth=2;strokeColor=#0080F0;shadow=0;dashed=0;shape=mxgraph.ios7.icons.folder;fontFamily=Times New Roman;horizontal=1;labelPosition=center;whiteSpace=wrap;" vertex="1" parent="1">
          <mxGeometry x="96" y="96" width="64" height="32" as="geometry" />
        </mxCell>
        <mxCell id="5X2ydo5uoh-6mL-FlauR-39" value="&lt;p style=&quot;line-height: 0%;&quot;&gt;display&lt;/p&gt;" style="html=1;verticalLabelPosition=middle;align=center;labelBackgroundColor=none;verticalAlign=middle;strokeWidth=2;strokeColor=#0080F0;shadow=0;dashed=0;shape=mxgraph.ios7.icons.folder;fontFamily=Times New Roman;horizontal=1;labelPosition=center;whiteSpace=wrap;" vertex="1" parent="1">
          <mxGeometry x="96" y="256" width="64" height="32" as="geometry" />
        </mxCell>
        <mxCell id="5X2ydo5uoh-6mL-FlauR-40" value="&lt;p style=&quot;line-height: 0%;&quot;&gt;menu&lt;/p&gt;" style="html=1;verticalLabelPosition=middle;align=center;labelBackgroundColor=none;verticalAlign=middle;strokeWidth=2;strokeColor=#0080F0;shadow=0;dashed=0;shape=mxgraph.ios7.icons.folder;fontFamily=Times New Roman;horizontal=1;labelPosition=center;whiteSpace=wrap;" vertex="1" parent="1">
          <mxGeometry x="96" y="352" width="64" height="32" as="geometry" />
        </mxCell>
        <mxCell id="5X2ydo5uoh-6mL-FlauR-69" style="edgeStyle=orthogonalEdgeStyle;rounded=0;orthogonalLoop=1;jettySize=auto;html=1;entryX=0;entryY=0.5;entryDx=0;entryDy=0;entryPerimeter=0;" edge="1" parent="1" source="5X2ydo5uoh-6mL-FlauR-42" target="5X2ydo5uoh-6mL-FlauR-43">
          <mxGeometry relative="1" as="geometry">
            <mxPoint x="224" y="224" as="targetPoint" />
            <Array as="points">
              <mxPoint x="224" y="224" />
            </Array>
          </mxGeometry>
        </mxCell>
        <mxCell id="5X2ydo5uoh-6mL-FlauR-42" value="&lt;p style=&quot;line-height: 0%;&quot;&gt;data&lt;/p&gt;" style="html=1;verticalLabelPosition=middle;align=center;labelBackgroundColor=none;verticalAlign=middle;strokeWidth=2;strokeColor=#0080F0;shadow=0;dashed=0;shape=mxgraph.ios7.icons.folder;fontFamily=Times New Roman;horizontal=1;labelPosition=center;whiteSpace=wrap;" vertex="1" parent="1">
          <mxGeometry x="192" y="144" width="64" height="32" as="geometry" />
        </mxCell>
        <mxCell id="5X2ydo5uoh-6mL-FlauR-43" value="file" style="whiteSpace=wrap;html=1;shape=mxgraph.basic.document" vertex="1" parent="1">
          <mxGeometry x="288" y="208" width="64" height="32" as="geometry" />
        </mxCell>
        <mxCell id="5X2ydo5uoh-6mL-FlauR-53" value="" style="endArrow=none;html=1;rounded=0;entryX=0.495;entryY=1.049;entryDx=0;entryDy=0;entryPerimeter=0;" edge="1" parent="1" target="5X2ydo5uoh-6mL-FlauR-5">
          <mxGeometry width="50" height="50" relative="1" as="geometry">
            <mxPoint x="64" y="464" as="sourcePoint" />
            <mxPoint x="258" y="176" as="targetPoint" />
          </mxGeometry>
        </mxCell>
        <mxCell id="5X2ydo5uoh-6mL-FlauR-54" value="file" style="whiteSpace=wrap;html=1;shape=mxgraph.basic.document" vertex="1" parent="1">
          <mxGeometry x="288" y="144" width="64" height="32" as="geometry" />
        </mxCell>
        <mxCell id="5X2ydo5uoh-6mL-FlauR-55" value="file" style="whiteSpace=wrap;html=1;shape=mxgraph.basic.document" vertex="1" parent="1">
          <mxGeometry x="384" y="144" width="64" height="32" as="geometry" />
        </mxCell>
        <mxCell id="5X2ydo5uoh-6mL-FlauR-56" value="file" style="whiteSpace=wrap;html=1;shape=mxgraph.basic.document" vertex="1" parent="1">
          <mxGeometry x="480" y="144" width="64" height="32" as="geometry" />
        </mxCell>
        <mxCell id="5X2ydo5uoh-6mL-FlauR-57" value="file" style="whiteSpace=wrap;html=1;shape=mxgraph.basic.document" vertex="1" parent="1">
          <mxGeometry x="576" y="144" width="64" height="32" as="geometry" />
        </mxCell>
        <mxCell id="5X2ydo5uoh-6mL-FlauR-58" value="file" style="whiteSpace=wrap;html=1;shape=mxgraph.basic.document" vertex="1" parent="1">
          <mxGeometry x="192" y="288" width="64" height="32" as="geometry" />
        </mxCell>
        <mxCell id="5X2ydo5uoh-6mL-FlauR-59" value="file" style="whiteSpace=wrap;html=1;shape=mxgraph.basic.document" vertex="1" parent="1">
          <mxGeometry x="288" y="288" width="64" height="32" as="geometry" />
        </mxCell>
        <mxCell id="5X2ydo5uoh-6mL-FlauR-60" value="file" style="whiteSpace=wrap;html=1;shape=mxgraph.basic.document" vertex="1" parent="1">
          <mxGeometry x="384" y="288" width="64" height="32" as="geometry" />
        </mxCell>
        <mxCell id="5X2ydo5uoh-6mL-FlauR-61" value="file" style="whiteSpace=wrap;html=1;shape=mxgraph.basic.document" vertex="1" parent="1">
          <mxGeometry x="192" y="384" width="64" height="32" as="geometry" />
        </mxCell>
        <mxCell id="5X2ydo5uoh-6mL-FlauR-62" value="file" style="whiteSpace=wrap;html=1;shape=mxgraph.basic.document" vertex="1" parent="1">
          <mxGeometry x="288" y="384" width="64" height="32" as="geometry" />
        </mxCell>
        <mxCell id="5X2ydo5uoh-6mL-FlauR-63" value="file" style="whiteSpace=wrap;html=1;shape=mxgraph.basic.document" vertex="1" parent="1">
          <mxGeometry x="384" y="384" width="64" height="32" as="geometry" />
        </mxCell>
        <mxCell id="5X2ydo5uoh-6mL-FlauR-64" value="" style="endArrow=classic;html=1;rounded=0;entryX=0;entryY=0.5;entryDx=0;entryDy=0;entryPerimeter=0;" edge="1" parent="1" target="5X2ydo5uoh-6mL-FlauR-10">
          <mxGeometry width="50" height="50" relative="1" as="geometry">
            <mxPoint x="64" y="464" as="sourcePoint" />
            <mxPoint x="114" y="416" as="targetPoint" />
          </mxGeometry>
        </mxCell>
        <mxCell id="5X2ydo5uoh-6mL-FlauR-65" value="" style="endArrow=classic;html=1;rounded=0;entryX=0;entryY=0.5;entryDx=0;entryDy=0;entryPerimeter=0;" edge="1" parent="1">
          <mxGeometry width="50" height="50" relative="1" as="geometry">
            <mxPoint x="64" y="367.71" as="sourcePoint" />
            <mxPoint x="96" y="367.71" as="targetPoint" />
          </mxGeometry>
        </mxCell>
        <mxCell id="5X2ydo5uoh-6mL-FlauR-66" value="" style="endArrow=classic;html=1;rounded=0;entryX=0;entryY=0.5;entryDx=0;entryDy=0;entryPerimeter=0;" edge="1" parent="1">
          <mxGeometry width="50" height="50" relative="1" as="geometry">
            <mxPoint x="64" y="271.71" as="sourcePoint" />
            <mxPoint x="96" y="271.71" as="targetPoint" />
          </mxGeometry>
        </mxCell>
        <mxCell id="5X2ydo5uoh-6mL-FlauR-67" value="" style="endArrow=classic;html=1;rounded=0;entryX=0;entryY=0.5;entryDx=0;entryDy=0;entryPerimeter=0;" edge="1" parent="1">
          <mxGeometry width="50" height="50" relative="1" as="geometry">
            <mxPoint x="64" y="111.70999999999998" as="sourcePoint" />
            <mxPoint x="96" y="111.70999999999998" as="targetPoint" />
          </mxGeometry>
        </mxCell>
      </root>
    </mxGraphModel>
  </diagram>
</mxfile>
